<?xml version="1.0" encoding="UTF-8"?>
<!-- Generated by Pixelmator Pro 3.6.15 -->
<svg width="400" height="450" viewBox="0 0 400 450" xmlns="http://www.w3.org/2000/svg">
    <path id="Path" fill="#ffffff" stroke="none" d="M -220 -195 L 620 -195 L 620 645 L -220 645 Z"/>
    <path id="path1" fill="#ffffff" stroke="none" d="M -220 -195 L 620 -195 L 620 645 L -220 645 Z"/>
    <path id="path2" fill="#3f4446" fill-rule="evenodd" stroke="none" d="M 161.492706 300.220856 C 143.445831 226.997925 220.117706 152.557312 278.290619 118.600006 C 216.209381 144.004181 71.630203 223.74585 161.492706 300.220856 Z M 161.492706 300.220856"/>
    <path id="path3" fill="#3f4446" fill-rule="evenodd" stroke="none" d="M 130.481262 230.760437 C 118.836456 204.93335 97.326035 184.225006 68.451035 167.264587 C 96.327087 179.018768 120.863556 192.996887 139.84375 210.686462 C 135.745819 217.227081 132.552094 223.913544 130.481262 230.760437 Z M 130.481262 230.760437"/>
    <path id="path4" fill="#3f4446" stroke="none" d="M 158.21875 171.938538 C 158.386444 172.99585 158.459381 174.053131 158.415619 175.117706 C 158.379181 176.182312 158.240631 177.239594 157.992706 178.274994 C 157.744781 179.317719 157.402069 180.316681 156.957306 181.286469 C 156.519806 182.256256 155.987488 183.175018 155.360413 184.042725 C 154.733337 184.910431 154.033325 185.705231 153.253113 186.434387 C 152.472931 187.15625 151.627075 187.805206 150.722931 188.366669 C 149.811462 188.928131 148.856262 189.394806 147.8573 189.766663 C 146.858337 190.13855 145.837494 190.408356 144.780212 190.583344 C 143.730194 190.751038 142.665619 190.816681 141.601044 190.780212 C 140.536469 190.743744 139.48645 190.597931 138.443756 190.3573 C 137.408325 190.109375 136.402069 189.766663 135.432281 189.321869 C 134.462494 188.877106 133.543762 188.344788 132.676056 187.725006 C 131.815613 187.097931 131.01355 186.397919 130.291656 185.617706 C 129.5625 184.837494 128.920837 183.991669 128.359375 183.080231 C 127.797913 182.176056 127.331238 181.220856 126.959381 180.221893 C 126.5802 179.222931 126.310425 178.194794 126.1427 177.144806 C 125.967712 176.087494 125.902069 175.030212 125.938538 173.965637 C 125.9823 172.901062 126.120819 171.84375 126.368744 170.80835 C 126.609375 169.765625 126.952087 168.766663 127.396881 167.796875 C 127.841675 166.819794 128.373962 165.908356 129.001038 165.040619 C 129.620819 164.172913 130.328125 163.378143 131.108337 162.648956 C 131.88855 161.927094 132.727081 161.278137 133.63855 160.716675 C 134.542694 160.155212 135.497925 159.688538 136.496887 159.316681 C 137.495819 158.944794 138.523956 158.675018 139.581238 158.5 C 140.631256 158.332306 141.688538 158.266663 142.760406 158.303131 C 143.825012 158.3396 144.875 158.485413 145.910431 158.726044 C 146.953125 158.973969 147.959381 159.316681 148.929169 159.761475 C 149.898956 160.206268 150.817719 160.738556 151.678131 161.358337 C 152.545837 161.985413 153.340637 162.685425 154.069794 163.465637 C 154.79895 164.24585 155.440613 165.091675 156.002075 166.003143 C 156.563538 166.907288 157.030212 167.862518 157.402069 168.861481 C 157.773956 169.860413 158.051056 170.88855 158.21875 171.938538 Z M 158.21875 171.938538"/>
    <path id="path5" fill="#ebb42c" fill-rule="evenodd" stroke="none" d="M 233.410431 300.220856 C 243.166656 260.605225 225.200012 220.632294 197.440613 186.908356 C 201.706238 181.723969 206.2052 176.692719 210.871887 171.821869 C 257.035431 207.587494 287.157288 254.480225 233.410431 300.220856 Z M 184.03125 171.84375 C 188.391663 168.467712 192.868744 165.193756 197.440613 162.036469 C 169.367706 142.655212 138.064575 127.393768 116.597931 118.614594 C 138.480194 131.367706 162.965637 149.852081 184.03125 171.84375 Z M 184.03125 171.84375"/>
    <path id="path6" fill="#ebb42c" fill-rule="evenodd" stroke="none" d="M 264.429169 230.760437 C 276.059387 204.947937 297.591675 184.225006 326.466675 167.286469 C 298.583344 179.033356 274.054169 193.011475 255.073944 210.708344 C 259.157288 217.227081 262.358337 223.913544 264.429169 230.760437 Z M 264.429169 230.760437"/>
    <path id="path7" fill="#ebb42c" stroke="none" d="M 256.481262 158.740631 C 257.516663 158.988556 258.522919 159.331268 259.492706 159.776062 C 260.462494 160.220856 261.381256 160.753143 262.248962 161.372925 C 263.109375 162 263.911469 162.700012 264.633331 163.480225 C 265.362488 164.260437 266.004181 165.106262 266.565613 166.017731 C 267.127075 166.921875 267.59375 167.877106 267.965637 168.876038 C 268.337494 169.875 268.614594 170.903137 268.782288 171.953125 C 268.957306 173.010437 269.022919 174.067719 268.98645 175.132294 C 268.942719 176.196869 268.804169 177.254181 268.556244 178.289581 C 268.315613 179.332306 267.965637 180.331268 267.528137 181.301056 C 267.083344 182.278137 266.551056 183.189606 265.92395 184.057312 C 265.304169 184.925018 264.596863 185.719788 263.816681 186.448975 C 263.036469 187.170837 262.190613 187.819794 261.286469 188.381256 C 260.382294 188.942719 259.427094 189.409393 258.428131 189.78125 C 257.429169 190.153137 256.401031 190.422913 255.34375 190.597931 C 254.293762 190.765625 253.23645 190.831268 252.164581 190.7948 C 251.100006 190.758331 250.049988 190.612518 249.007294 190.371887 C 247.971863 190.123962 246.965637 189.78125 245.995819 189.336456 C 245.026031 188.891663 244.1073 188.359375 243.246887 187.739594 C 242.379181 187.112518 241.584381 186.412506 240.855194 185.632294 C 240.126038 184.852081 239.484375 184.006256 238.922913 183.094788 C 238.36145 182.190643 237.894806 181.235413 237.522919 180.236481 C 237.151031 179.237518 236.873962 178.209381 236.706238 177.159393 C 236.538544 176.102081 236.465637 175.0448 236.509369 173.980225 C 236.545837 172.915619 236.684387 171.858337 236.932281 170.822937 C 237.172913 169.787506 237.522919 168.78125 237.960419 167.811462 C 238.405212 166.841675 238.9375 165.922913 239.564575 165.055206 C 240.184387 164.1875 240.891663 163.392731 241.671875 162.663544 C 242.452087 161.941681 243.297913 161.292725 244.202087 160.731262 C 245.113556 160.177094 246.061462 159.703125 247.060425 159.331268 C 248.066681 158.959381 249.087494 158.689606 250.144806 158.514587 C 251.194794 158.346893 252.259369 158.28125 253.323944 158.317719 C 254.38855 158.354187 255.438538 158.5 256.481262 158.740631 Z M 256.481262 158.740631"/>
    <clipPath id="clipPath1">
        <path d="M 58.971878 235.266663 L 341.771866 235.266663 L 341.771866 339.690628 L 58.971878 339.690628 Z M 58.971878 235.266663"/>
    </clipPath>
    <g id="Group" clip-path="url(#clipPath1)">
        <path id="path8" fill="#3f4446" fill-rule="evenodd" stroke="none" d="M 200.262512 339.945862 C 278.305206 339.945862 341.560425 313.980225 341.560425 281.962494 C 341.560425 263.106262 319.634369 246.364594 285.684387 235.7771 C 313.575012 245.70105 331.235413 260.386475 331.235413 276.792725 C 331.235413 306.659393 272.595825 330.875 200.262512 330.875 C 127.921875 330.875 69.296875 306.659393 69.296875 276.792725 C 69.296875 260.401062 86.957291 245.70105 114.847931 235.791687 C 80.897919 246.364594 58.971878 263.106262 58.971878 281.962494 C 58.971878 313.980225 122.227081 339.945862 200.262512 339.945862 Z M 200.262512 339.945862"/>
    </g>
    <path id="path9" fill="#3f4446" stroke="none" d="M 216.880219 115.68335 C 217.084381 116.952087 217.164581 118.228119 217.120819 119.504181 C 217.077087 120.787506 216.902069 122.056244 216.610413 123.303131 C 216.311462 124.550018 215.903137 125.760437 215.370819 126.927094 C 214.838531 128.09375 214.196869 129.194794 213.445831 130.237518 C 212.694794 131.272919 211.848969 132.235413 210.908325 133.103119 C 209.975006 133.978119 208.961456 134.751038 207.867706 135.429169 C 206.773956 136.100006 205.629181 136.661469 204.426056 137.113556 C 203.222931 137.55835 201.990631 137.886475 200.729156 138.090637 C 199.460419 138.2948 198.184387 138.375 196.908325 138.331268 C 195.625 138.287506 194.356262 138.119812 193.109375 137.820831 C 191.862488 137.529175 190.652069 137.113556 189.485413 136.581268 C 188.318756 136.048981 187.217712 135.407288 186.174988 134.65625 C 185.139587 133.905212 184.177094 133.059387 183.309387 132.126038 C 182.434387 131.185425 181.661469 130.171875 180.983337 129.078125 C 180.3125 127.991669 179.751038 126.8396 179.29895 125.643768 C 178.854156 124.440643 178.526031 123.208344 178.321869 121.939606 C 178.117706 120.670837 178.037506 119.4021 178.081238 118.118744 C 178.125 116.835419 178.292694 115.573975 178.591675 114.327087 C 178.883331 113.072937 179.29895 111.869812 179.831238 110.703125 C 180.363556 109.536469 181.005219 108.428131 181.756256 107.392731 C 182.507294 106.350006 183.345825 105.394806 184.286469 104.519806 C 185.227081 103.644806 186.240631 102.871887 187.334381 102.193756 C 188.420837 101.522919 189.572906 100.961456 190.768738 100.516663 C 191.971863 100.064606 193.204163 99.736481 194.472931 99.532288 C 195.741669 99.328125 197.010406 99.247925 198.293762 99.291687 C 199.577087 99.335419 200.838531 99.510437 202.085419 99.802094 C 203.339569 100.101044 204.542694 100.509369 205.709381 101.041687 C 206.876038 101.573975 207.984375 102.215637 209.019806 102.966675 C 210.0625 103.717712 211.0177 104.563538 211.8927 105.504181 C 212.7677 106.4375 213.540619 107.45105 214.21875 108.5448 C 214.889587 109.63855 215.45105 110.783356 215.895844 111.986481 C 216.347931 113.182312 216.676056 114.421875 216.880219 115.68335 Z M 216.880219 115.68335"/>
    <clipPath id="clipPath2">
        <path d="M 56.142715 -19.314575 L 338.942703 -19.314575 L 338.942703 109.485413 L 56.142715 109.485413 Z M 56.142715 -19.314575"/>
    </clipPath>
    <g id="g1" clip-path="url(#clipPath2)">
        <path id="path10" fill="#ebb42c" stroke="none" d="M 252.842712 -18.774963 C 253.127075 -17.863525 252.631256 -17.200012 252.346863 -16.521851 C 249.320831 -9.28125 245.551056 -2.390625 242.102081 4.645813 C 236.305206 16.4729 230.311462 28.197937 225.396881 40.4552 C 222.480194 47.717712 219.228119 54.856262 216.245819 62.104187 C 216.012512 62.672913 215.801056 63.803131 215.108337 63.4823 C 214.262512 63.095856 215.057281 62.220825 215.305206 61.622925 C 219.016663 52.595825 222.684387 43.546875 226.505219 34.570862 C 230.384369 25.448975 235.058319 16.698975 239.404175 7.795837 C 243.553131 -0.713562 247.782288 -9.193726 251.9823 -17.688538 C 252.164581 -18.060425 252.237488 -18.5271 252.842712 -18.774963 Z M 145.903137 -17.965637 C 146.610413 -15.573975 147.295837 -13.174988 148.265625 -10.863525 C 151.678131 -2.704163 155.4552 5.331238 158.204163 13.723938 C 163.731262 30.5896 170.869781 46.835449 176.783325 63.547913 C 176.965637 64.05835 177.009369 65.086456 177.840637 64.772919 C 178.577087 64.503143 177.913544 63.759369 177.7677 63.270844 C 176.404175 58.713562 174.617706 54.2948 172.867706 49.876038 C 163.971863 27.352112 155.688538 4.602112 146.880219 -17.958313 C 146.7052 -18.417725 146.632294 -19.008301 145.903137 -19.176025 C 145.6698 -18.702087 145.793762 -18.337463 145.903137 -17.965637 Z M 247.016663 89.797913 C 253.965637 86.626038 260.899994 83.410431 267.827087 80.194794 C 278.465637 75.265625 288.994781 70.088562 299.691681 65.276062 C 307.931244 61.571899 316.323944 58.188538 324.235413 53.784363 C 324.818756 53.463562 325.569794 53.332275 326.021881 52.223938 C 298.328125 64.546875 271.407288 77.70105 244.231262 90.337494 C 245.303131 90.651062 246.170837 90.191681 247.016663 89.797913 Z M 252.842712 109.405212 C 262.372925 109.113556 271.903137 109.711456 281.433319 109.368744 C 288.265625 109.12085 295.097931 109.572937 301.930206 109.696869 C 310.454163 109.850006 318.956238 109.354187 327.465637 109.033356 C 330.929169 108.9021 334.3927 108.800018 337.856262 108.676056 C 338.235413 108.661469 338.782288 108.661469 338.7677 108.194794 C 338.745819 107.633331 338.1698 107.859375 337.834381 107.866669 C 335.865631 107.932312 333.896881 108.034393 331.920837 108.114594 C 315.230194 108.76355 298.524994 108.202087 281.834381 108.741669 C 271.487488 109.069794 261.140625 108.070831 250.793762 108.552094 C 250.203125 108.581268 249.554169 108.398956 248.970825 109.0625 C 250.297913 109.470856 251.581238 109.448975 252.842712 109.405212 Z M 144.102081 108.216675 C 142.133331 108.158356 140.157288 108.136475 138.188538 108.092712 C 130 107.88855 121.847931 108.829163 113.666656 108.712494 C 106.119781 108.610413 98.565628 108.304169 91.018753 108.202087 C 79.811462 108.041687 68.596878 108.274994 57.389587 108.435425 C 56.944794 108.442719 56.222916 108.267731 56.201035 108.9021 C 56.171875 109.645844 56.915619 109.332306 57.323959 109.3396 C 62.712494 109.376038 68.101044 109.441681 73.489578 109.390625 C 92.878128 109.20105 112.266663 109.492706 131.647919 109.047913 C 135.643738 108.960419 139.639587 109.040619 143.628113 109.011475 C 144.21875 109.011475 144.889587 109.20105 145.3927 108.639587 C 145.071869 108.121887 144.546875 108.231262 144.102081 108.216675 Z M 71.951035 52.967712 C 81.532288 57.452087 91.128128 61.900024 100.330215 67.157288 C 112.915619 74.346893 126.310425 79.954163 139.04895 86.837494 C 142.38855 88.63855 145.917694 90.082306 149.373962 91.671875 C 149.651031 91.803131 150.088531 92.269806 150.321869 91.679169 C 150.4823 91.285431 150.001038 91.161469 149.716675 91.008331 C 148.783325 90.505219 147.850006 90.002106 146.902069 89.535431 C 138.881256 85.57605 130.802094 81.726044 122.832306 77.657288 C 105.696869 68.914581 88.539581 60.193787 71.294785 51.6698 C 70.886459 51.465637 70.5 51.071899 69.800003 51.443787 C 70.354172 52.318787 71.18541 52.617737 71.951035 52.967712 Z M 197.827087 -0.917725 C 197.746887 5.382324 197.630219 11.682312 197.579163 17.989563 C 197.4552 31.945862 197.265625 45.9021 197.506256 59.858337 C 197.51355 60.470825 197.280212 61.498962 198.184387 61.469788 C 199.001038 61.440613 198.643738 60.448975 198.665619 59.887512 C 199.030212 49.6427 198.235413 39.397949 198.570831 29.145813 C 198.877075 19.477112 198.651031 9.793762 198.643738 0.117737 C 198.643738 -0.480225 198.818756 -1.143738 198.228119 -1.712463 C 197.848969 -1.493713 197.834381 -1.216675 197.827087 -0.917725 Z M 277.809387 30.181274 C 277.481262 30.348938 277.174988 30.596863 276.897919 30.852112 C 273.098969 34.46875 269.34375 38.12915 265.508331 41.702087 C 261.045837 45.865662 256.444794 49.897949 252.018738 54.0979 C 245.733337 60.047913 239.652069 66.209381 233.680206 72.472931 C 233.279175 72.88855 232.899994 73.32605 232.542694 73.778137 C 232.360413 74.004181 232.221863 74.310425 232.4552 74.55835 C 232.768738 74.879181 233.075012 74.675018 233.322906 74.427094 C 234.008331 73.741669 234.671875 73.048981 235.3573 72.37085 C 238.973969 68.783356 242.772919 65.356262 246.178131 61.571899 C 251.04895 56.154175 256.233337 51.101074 261.7677 46.390625 C 267.163544 41.796875 272.129181 36.758362 277.211456 31.851074 C 277.619781 31.450012 277.977081 30.997925 278.297913 30.626038 C 278.276031 30.188538 278.035431 30.071899 277.809387 30.181274 Z M 118.778137 28.846863 C 119.033325 29.612488 119.653137 30.101074 120.192719 30.633362 C 131.873962 42.154175 142.928131 54.287537 154.602081 65.822937 C 157.2052 68.396881 159.677094 71.094788 162.134369 73.800018 C 162.404175 74.098969 162.754181 74.572937 163.206238 74.164581 C 163.658325 73.756256 163.228119 73.384369 162.943756 73.070831 C 161.901031 71.93335 160.872925 70.788544 159.815613 69.672913 C 152.895844 62.439575 145.640625 55.534363 138.647919 48.381287 C 133.135406 42.737488 127.943756 36.787537 122.168762 31.391663 C 121.140625 30.429199 120.097931 29.488525 119.0625 28.533325 C 118.967712 28.635437 118.872925 28.744812 118.778137 28.846863 Z M 170.505219 68.302094 C 170.38855 67.186462 169.688538 66.311462 169.105194 65.407288 C 164.34375 58.064575 159.647919 50.670837 154.631256 43.49585 C 153.581238 41.993774 152.553131 40.484375 151.503113 38.996887 C 151.320831 38.734375 151.058319 38.384399 150.679169 38.668762 C 150.380219 38.894775 150.6427 39.193787 150.766663 39.434387 C 150.868744 39.653137 151.014587 39.850037 151.145844 40.046875 C 156.38855 47.768738 161.915619 55.293762 166.560425 63.409393 C 167.595825 65.210419 168.9375 66.836456 170.133331 68.542725 C 170.257294 68.462494 170.381256 68.382294 170.505219 68.302094 Z M 188.84375 61.528137 C 188.836456 60.011475 188.245819 58.618774 187.96875 57.1604 C 186.13855 47.484375 184.322906 37.815613 182.478119 28.146912 C 182.354156 27.483337 182.376038 26.243774 181.683319 26.389587 C 180.822906 26.571899 181.304169 27.6875 181.450012 28.380188 C 183.280212 37.217712 185.475006 45.9823 186.583344 54.965637 C 186.889587 57.422913 187.604156 59.814575 188.347931 62.25 C 188.887512 62.009399 188.84375 61.746887 188.84375 61.528137 Z M 155.382294 79.946869 C 153.938538 78.605225 152.276031 77.526062 150.657288 76.403137 C 145.276031 72.684387 139.887512 68.980225 134.7323 64.940643 C 133.106262 63.671875 131.378113 62.519775 129.679169 61.345825 C 129.351044 61.119812 128.840637 60.806274 128.556244 61.323975 C 128.322906 61.739563 128.811462 61.994812 129.110413 62.213562 C 130.0802 62.913574 131.064575 63.606262 132.063538 64.284393 C 133.777069 65.436462 135.541656 66.530212 137.226044 67.726044 C 143.103119 71.904175 148.637512 76.563538 154.660431 80.5448 C 155.141663 80.865631 155.520844 81.507294 156.315613 81.193756 C 156.220825 80.595856 155.761444 80.296875 155.382294 79.946869 Z M 146.785431 99.291687 C 146.573944 99.182312 146.377075 99.014587 146.158325 98.978119 C 141.659363 98.219788 137.328125 96.7323 132.851044 95.871887 C 127.477081 94.836456 122.314575 92.962494 116.9552 91.846893 C 116.007294 91.642731 115.001038 91.161469 113.907288 91.671875 C 114.410431 92.386475 115.110413 92.422913 115.744781 92.590637 C 120.0177 93.677094 124.3125 94.661469 128.621887 95.609375 C 133.026031 96.579163 137.335419 97.928131 141.710419 99.021881 C 143.336456 99.430206 145.01355 99.7948 146.719788 99.648956 C 146.741669 99.532288 146.76355 99.408356 146.785431 99.291687 Z M 240.877075 82.178131 C 242.211456 81.230225 243.509369 80.24585 244.836456 79.290619 C 251.202087 74.726044 257.567719 70.18335 263.918762 65.611481 C 264.662506 65.079163 265.318756 64.4375 265.996887 63.825012 C 266.222931 63.62085 266.609375 63.358337 266.266663 63.001038 C 266.018738 62.74585 265.727081 63.015625 265.501038 63.161469 C 264.3927 63.927094 263.306244 64.721893 262.197906 65.480225 C 258.435425 68.068756 255.176056 71.320831 251.289581 73.741669 C 247.651031 75.994812 244.165619 78.473969 240.796875 81.113556 C 240.279175 81.521881 239.659363 81.850006 239.484375 82.659393 C 240.177094 82.87085 240.512512 82.440643 240.877075 82.178131 Z M 227.278137 65.348969 C 230.865631 59.5448 234.4823 53.762512 238.558319 48.279175 C 240.11145 46.193787 241.4823 43.998962 242.772919 41.738525 C 242.998962 41.337524 243.414581 40.739563 242.947906 40.447937 C 242.422913 40.119812 242.153137 40.8125 241.927094 41.198975 C 236.96875 49.431274 231.346863 57.233337 226.177094 65.327087 C 225.549988 66.311462 224.784363 67.230225 224.5802 68.455231 C 225.856262 67.711456 226.563538 66.515625 227.278137 65.348969 Z M 207.189575 61.783325 C 207.320831 61.280212 207.481262 60.791687 207.57605 60.28125 C 209.442719 50.670837 211.127075 41.023987 213.372925 31.493774 C 213.598969 30.509399 213.744781 29.510437 213.890625 28.511475 C 213.948944 28.139587 213.978119 27.636475 213.4823 27.578125 C 212.98645 27.519775 212.950012 28.0448 212.833344 28.394775 C 212.774994 28.569824 212.774994 28.773987 212.745819 28.963562 C 211.433319 37.801025 209.450012 46.507324 207.707306 55.257324 C 207.284363 57.37915 206.854156 59.537537 206.810425 61.725037 C 206.934387 61.746887 207.065613 61.761475 207.189575 61.783325 Z M 279.515625 92.787506 C 269.037506 94.989594 258.552094 97.140625 248.227081 100.01355 C 250.378113 100.334381 278.852081 93.728119 279.515625 92.787506 Z M 110.283325 90.986481 C 110.421875 91.001038 110.655212 90.847931 110.720825 90.716675 C 110.844788 90.432312 110.604156 90.271881 110.370819 90.206268 C 108.708344 89.739594 107.075012 89.083344 105.266663 89.2948 C 106.819794 90.228119 108.489594 90.789581 110.283325 90.986481 Z M 146.019806 31.712524 C 145.895844 31.676025 145.662506 31.697937 145.640625 31.748962 C 145.589569 31.909363 145.545837 32.135437 145.618744 32.273987 C 146.274994 33.506287 147.084381 34.636475 148.003113 35.693787 C 148.170837 35.890625 148.396881 35.992737 148.637512 35.868774 C 148.739594 35.817688 148.768738 35.6427 148.797913 35.591675 C 148.797913 35.022949 146.479156 31.829163 146.019806 31.712524 Z M 269.387512 60.113525 C 269.161469 60.295837 269.008331 60.602112 269.190613 60.871887 C 269.402069 61.178162 269.722931 61.010437 269.956238 60.864563 C 271.17395 60.113525 272.260406 59.216675 273.033325 57.9552 C 271.633331 58.407288 270.495819 59.231262 269.387512 60.113525 Z M 180.618744 22.386475 C 180.684387 22.648987 180.771881 22.984375 181.151031 22.93335 C 181.428131 22.896912 181.5448 22.65625 181.48645 22.401062 C 181.136444 20.862488 181.070831 19.229187 179.984375 17.9021 C 179.860413 19.4552 180.268738 20.920837 180.618744 22.386475 Z M 215.319794 19.783325 C 215.341675 19.637512 215.195831 19.389587 215.064575 19.331238 C 214.780212 19.200012 214.627075 19.4552 214.57605 19.681274 C 214.226044 21.081238 213.708344 22.473938 214.21875 23.976074 C 215.166656 22.7146 215.115631 21.212524 215.319794 19.783325 Z M 247.913544 33.032288 C 246.819794 34.446899 245.383331 35.635437 245.033325 37.53125 C 246.258331 36.204163 247.519806 34.891663 247.913544 33.032288 Z M 120.251038 55.82605 C 121.235413 57.21875 122.649994 58.020813 124.246887 58.596863 C 123.204163 57.269775 121.964569 56.197937 120.251038 55.82605 Z M 283.125 92.123962 C 284.692719 91.854187 286.369781 91.948975 287.63855 90.723969 C 286.056244 90.971893 284.364594 90.840637 283.125 92.123962 Z M 283.125 92.123962"/>
        <path id="path11" fill="#ebb42c" stroke="none" d="M 252.842712 -18.774963 C 253.127075 -17.863525 252.631256 -17.200012 252.346863 -16.521851 C 249.320831 -9.28125 245.551056 -2.390625 242.102081 4.645813 C 236.305206 16.4729 230.311462 28.197937 225.396881 40.4552 C 222.480194 47.717712 219.228119 54.856262 216.245819 62.104187 C 216.012512 62.672913 215.801056 63.803131 215.108337 63.4823 C 214.262512 63.095856 215.057281 62.220825 215.305206 61.622925 C 219.016663 52.595825 222.684387 43.546875 226.505219 34.570862 C 230.384369 25.448975 235.058319 16.698975 239.404175 7.795837 C 243.553131 -0.713562 247.782288 -9.193726 251.9823 -17.688538 C 252.164581 -18.060425 252.237488 -18.5271 252.842712 -18.774963 Z M 145.903137 -17.965637 C 146.610413 -15.573975 147.295837 -13.174988 148.265625 -10.863525 C 151.678131 -2.704163 155.4552 5.331238 158.204163 13.723938 C 163.731262 30.5896 170.869781 46.835449 176.783325 63.547913 C 176.965637 64.05835 177.009369 65.086456 177.840637 64.772919 C 178.577087 64.503143 177.913544 63.759369 177.7677 63.270844 C 176.404175 58.713562 174.617706 54.2948 172.867706 49.876038 C 163.971863 27.352112 155.688538 4.602112 146.880219 -17.958313 C 146.7052 -18.417725 146.632294 -19.008301 145.903137 -19.176025 C 145.6698 -18.702087 145.793762 -18.337463 145.903137 -17.965637 Z M 247.016663 89.797913 C 253.965637 86.626038 260.899994 83.410431 267.827087 80.194794 C 278.465637 75.265625 288.994781 70.088562 299.691681 65.276062 C 307.931244 61.571899 316.323944 58.188538 324.235413 53.784363 C 324.818756 53.463562 325.569794 53.332275 326.021881 52.223938 C 298.328125 64.546875 271.407288 77.70105 244.231262 90.337494 C 245.303131 90.651062 246.170837 90.191681 247.016663 89.797913 Z M 252.842712 109.405212 C 262.372925 109.113556 271.903137 109.711456 281.433319 109.368744 C 288.265625 109.12085 295.097931 109.572937 301.930206 109.696869 C 310.454163 109.850006 318.956238 109.354187 327.465637 109.033356 C 330.929169 108.9021 334.3927 108.800018 337.856262 108.676056 C 338.235413 108.661469 338.782288 108.661469 338.7677 108.194794 C 338.745819 107.633331 338.1698 107.859375 337.834381 107.866669 C 335.865631 107.932312 333.896881 108.034393 331.920837 108.114594 C 315.230194 108.76355 298.524994 108.202087 281.834381 108.741669 C 271.487488 109.069794 261.140625 108.070831 250.793762 108.552094 C 250.203125 108.581268 249.554169 108.398956 248.970825 109.0625 C 250.297913 109.470856 251.581238 109.448975 252.842712 109.405212 Z M 144.102081 108.216675 C 142.133331 108.158356 140.157288 108.136475 138.188538 108.092712 C 130 107.88855 121.847931 108.829163 113.666656 108.712494 C 106.119781 108.610413 98.565628 108.304169 91.018753 108.202087 C 79.811462 108.041687 68.596878 108.274994 57.389587 108.435425 C 56.944794 108.442719 56.222916 108.267731 56.201035 108.9021 C 56.171875 109.645844 56.915619 109.332306 57.323959 109.3396 C 62.712494 109.376038 68.101044 109.441681 73.489578 109.390625 C 92.878128 109.20105 112.266663 109.492706 131.647919 109.047913 C 135.643738 108.960419 139.639587 109.040619 143.628113 109.011475 C 144.21875 109.011475 144.889587 109.20105 145.3927 108.639587 C 145.071869 108.121887 144.546875 108.231262 144.102081 108.216675 Z M 71.951035 52.967712 C 81.532288 57.452087 91.128128 61.900024 100.330215 67.157288 C 112.915619 74.346893 126.310425 79.954163 139.04895 86.837494 C 142.38855 88.63855 145.917694 90.082306 149.373962 91.671875 C 149.651031 91.803131 150.088531 92.269806 150.321869 91.679169 C 150.4823 91.285431 150.001038 91.161469 149.716675 91.008331 C 148.783325 90.505219 147.850006 90.002106 146.902069 89.535431 C 138.881256 85.57605 130.802094 81.726044 122.832306 77.657288 C 105.696869 68.914581 88.539581 60.193787 71.294785 51.6698 C 70.886459 51.465637 70.5 51.071899 69.800003 51.443787 C 70.354172 52.318787 71.18541 52.617737 71.951035 52.967712 Z M 197.827087 -0.917725 C 197.746887 5.382324 197.630219 11.682312 197.579163 17.989563 C 197.4552 31.945862 197.265625 45.9021 197.506256 59.858337 C 197.51355 60.470825 197.280212 61.498962 198.184387 61.469788 C 199.001038 61.440613 198.643738 60.448975 198.665619 59.887512 C 199.030212 49.6427 198.235413 39.397949 198.570831 29.145813 C 198.877075 19.477112 198.651031 9.793762 198.643738 0.117737 C 198.643738 -0.480225 198.818756 -1.143738 198.228119 -1.712463 C 197.848969 -1.493713 197.834381 -1.216675 197.827087 -0.917725 Z M 277.809387 30.181274 C 277.481262 30.348938 277.174988 30.596863 276.897919 30.852112 C 273.098969 34.46875 269.34375 38.12915 265.508331 41.702087 C 261.045837 45.865662 256.444794 49.897949 252.018738 54.0979 C 245.733337 60.047913 239.652069 66.209381 233.680206 72.472931 C 233.279175 72.88855 232.899994 73.32605 232.542694 73.778137 C 232.360413 74.004181 232.221863 74.310425 232.4552 74.55835 C 232.768738 74.879181 233.075012 74.675018 233.322906 74.427094 C 234.008331 73.741669 234.671875 73.048981 235.3573 72.37085 C 238.973969 68.783356 242.772919 65.356262 246.178131 61.571899 C 251.04895 56.154175 256.233337 51.101074 261.7677 46.390625 C 267.163544 41.796875 272.129181 36.758362 277.211456 31.851074 C 277.619781 31.450012 277.977081 30.997925 278.297913 30.626038 C 278.276031 30.188538 278.035431 30.071899 277.809387 30.181274 Z M 118.778137 28.846863 C 119.033325 29.612488 119.653137 30.101074 120.192719 30.633362 C 131.873962 42.154175 142.928131 54.287537 154.602081 65.822937 C 157.2052 68.396881 159.677094 71.094788 162.134369 73.800018 C 162.404175 74.098969 162.754181 74.572937 163.206238 74.164581 C 163.658325 73.756256 163.228119 73.384369 162.943756 73.070831 C 161.901031 71.93335 160.872925 70.788544 159.815613 69.672913 C 152.895844 62.439575 145.640625 55.534363 138.647919 48.381287 C 133.135406 42.737488 127.943756 36.787537 122.168762 31.391663 C 121.140625 30.429199 120.097931 29.488525 119.0625 28.533325 C 118.967712 28.635437 118.872925 28.744812 118.778137 28.846863 Z M 170.505219 68.302094 C 170.38855 67.186462 169.688538 66.311462 169.105194 65.407288 C 164.34375 58.064575 159.647919 50.670837 154.631256 43.49585 C 153.581238 41.993774 152.553131 40.484375 151.503113 38.996887 C 151.320831 38.734375 151.058319 38.384399 150.679169 38.668762 C 150.380219 38.894775 150.6427 39.193787 150.766663 39.434387 C 150.868744 39.653137 151.014587 39.850037 151.145844 40.046875 C 156.38855 47.768738 161.915619 55.293762 166.560425 63.409393 C 167.595825 65.210419 168.9375 66.836456 170.133331 68.542725 C 170.257294 68.462494 170.381256 68.382294 170.505219 68.302094 Z M 188.84375 61.528137 C 188.836456 60.011475 188.245819 58.618774 187.96875 57.1604 C 186.13855 47.484375 184.322906 37.815613 182.478119 28.146912 C 182.354156 27.483337 182.376038 26.243774 181.683319 26.389587 C 180.822906 26.571899 181.304169 27.6875 181.450012 28.380188 C 183.280212 37.217712 185.475006 45.9823 186.583344 54.965637 C 186.889587 57.422913 187.604156 59.814575 188.347931 62.25 C 188.887512 62.009399 188.84375 61.746887 188.84375 61.528137 Z M 155.382294 79.946869 C 153.938538 78.605225 152.276031 77.526062 150.657288 76.403137 C 145.276031 72.684387 139.887512 68.980225 134.7323 64.940643 C 133.106262 63.671875 131.378113 62.519775 129.679169 61.345825 C 129.351044 61.119812 128.840637 60.806274 128.556244 61.323975 C 128.322906 61.739563 128.811462 61.994812 129.110413 62.213562 C 130.0802 62.913574 131.064575 63.606262 132.063538 64.284393 C 133.777069 65.436462 135.541656 66.530212 137.226044 67.726044 C 143.103119 71.904175 148.637512 76.563538 154.660431 80.5448 C 155.141663 80.865631 155.520844 81.507294 156.315613 81.193756 C 156.220825 80.595856 155.761444 80.296875 155.382294 79.946869 Z M 146.785431 99.291687 C 146.573944 99.182312 146.377075 99.014587 146.158325 98.978119 C 141.659363 98.219788 137.328125 96.7323 132.851044 95.871887 C 127.477081 94.836456 122.314575 92.962494 116.9552 91.846893 C 116.007294 91.642731 115.001038 91.161469 113.907288 91.671875 C 114.410431 92.386475 115.110413 92.422913 115.744781 92.590637 C 120.0177 93.677094 124.3125 94.661469 128.621887 95.609375 C 133.026031 96.579163 137.335419 97.928131 141.710419 99.021881 C 143.336456 99.430206 145.01355 99.7948 146.719788 99.648956 C 146.741669 99.532288 146.76355 99.408356 146.785431 99.291687 Z M 240.877075 82.178131 C 242.211456 81.230225 243.509369 80.24585 244.836456 79.290619 C 251.202087 74.726044 257.567719 70.18335 263.918762 65.611481 C 264.662506 65.079163 265.318756 64.4375 265.996887 63.825012 C 266.222931 63.62085 266.609375 63.358337 266.266663 63.001038 C 266.018738 62.74585 265.727081 63.015625 265.501038 63.161469 C 264.3927 63.927094 263.306244 64.721893 262.197906 65.480225 C 258.435425 68.068756 255.176056 71.320831 251.289581 73.741669 C 247.651031 75.994812 244.165619 78.473969 240.796875 81.113556 C 240.279175 81.521881 239.659363 81.850006 239.484375 82.659393 C 240.177094 82.87085 240.512512 82.440643 240.877075 82.178131 Z M 227.278137 65.348969 C 230.865631 59.5448 234.4823 53.762512 238.558319 48.279175 C 240.11145 46.193787 241.4823 43.998962 242.772919 41.738525 C 242.998962 41.337524 243.414581 40.739563 242.947906 40.447937 C 242.422913 40.119812 242.153137 40.8125 241.927094 41.198975 C 236.96875 49.431274 231.346863 57.233337 226.177094 65.327087 C 225.549988 66.311462 224.784363 67.230225 224.5802 68.455231 C 225.856262 67.711456 226.563538 66.515625 227.278137 65.348969 Z M 207.189575 61.783325 C 207.320831 61.280212 207.481262 60.791687 207.57605 60.28125 C 209.442719 50.670837 211.127075 41.023987 213.372925 31.493774 C 213.598969 30.509399 213.744781 29.510437 213.890625 28.511475 C 213.948944 28.139587 213.978119 27.636475 213.4823 27.578125 C 212.98645 27.519775 212.950012 28.0448 212.833344 28.394775 C 212.774994 28.569824 212.774994 28.773987 212.745819 28.963562 C 211.433319 37.801025 209.450012 46.507324 207.707306 55.257324 C 207.284363 57.37915 206.854156 59.537537 206.810425 61.725037 C 206.934387 61.746887 207.065613 61.761475 207.189575 61.783325 Z M 279.515625 92.787506 C 269.037506 94.989594 258.552094 97.140625 248.227081 100.01355 C 250.378113 100.334381 278.852081 93.728119 279.515625 92.787506 Z M 110.283325 90.986481 C 110.421875 91.001038 110.655212 90.847931 110.720825 90.716675 C 110.844788 90.432312 110.604156 90.271881 110.370819 90.206268 C 108.708344 89.739594 107.075012 89.083344 105.266663 89.2948 C 106.819794 90.228119 108.489594 90.789581 110.283325 90.986481 Z M 146.019806 31.712524 C 145.895844 31.676025 145.662506 31.697937 145.640625 31.748962 C 145.589569 31.909363 145.545837 32.135437 145.618744 32.273987 C 146.274994 33.506287 147.084381 34.636475 148.003113 35.693787 C 148.170837 35.890625 148.396881 35.992737 148.637512 35.868774 C 148.739594 35.817688 148.768738 35.6427 148.797913 35.591675 C 148.797913 35.022949 146.479156 31.829163 146.019806 31.712524 Z M 269.387512 60.113525 C 269.161469 60.295837 269.008331 60.602112 269.190613 60.871887 C 269.402069 61.178162 269.722931 61.010437 269.956238 60.864563 C 271.17395 60.113525 272.260406 59.216675 273.033325 57.9552 C 271.633331 58.407288 270.495819 59.231262 269.387512 60.113525 Z M 180.618744 22.386475 C 180.684387 22.648987 180.771881 22.984375 181.151031 22.93335 C 181.428131 22.896912 181.5448 22.65625 181.48645 22.401062 C 181.136444 20.862488 181.070831 19.229187 179.984375 17.9021 C 179.860413 19.4552 180.268738 20.920837 180.618744 22.386475 Z M 215.319794 19.783325 C 215.341675 19.637512 215.195831 19.389587 215.064575 19.331238 C 214.780212 19.200012 214.627075 19.4552 214.57605 19.681274 C 214.226044 21.081238 213.708344 22.473938 214.21875 23.976074 C 215.166656 22.7146 215.115631 21.212524 215.319794 19.783325 Z M 247.913544 33.032288 C 246.819794 34.446899 245.383331 35.635437 245.033325 37.53125 C 246.258331 36.204163 247.519806 34.891663 247.913544 33.032288 Z M 120.251038 55.82605 C 121.235413 57.21875 122.649994 58.020813 124.246887 58.596863 C 123.204163 57.269775 121.964569 56.197937 120.251038 55.82605 Z M 283.125 92.123962 C 284.692719 91.854187 286.369781 91.948975 287.63855 90.723969 C 286.056244 90.971893 284.364594 90.840637 283.125 92.123962 Z M 283.125 92.123962"/>
    </g>
    <clipPath id="clipPath3">
        <path d="M 174.799988 343.53334 L 217.733337 343.53334 L 217.733337 354.361465 L 174.799988 354.361465 Z M 174.799988 343.53334"/>
    </clipPath>
    <g id="g2" clip-path="url(#clipPath3)">
        <path id="path12" fill="#3f4446" stroke="none" d="M 181.676056 344.094788 C 179.765625 344.780212 178.183319 346.121887 177.527069 348.097931 C 176.520844 351.153137 178.569794 353.501038 181.872925 353.1875 C 188.019806 352.604187 190.972931 346.887512 195.32605 344.911469 C 198.847931 343.321899 201.17395 345.633362 201.458344 347.915649 C 200.364594 345.742737 197.571869 345.691681 195.566681 346.398987 C 191.060425 347.99585 187.815613 353.347931 181.945831 353.9021 C 177.213531 354.288544 174.180206 351.233337 175.623962 347.427094 C 176.097931 346.1875 178.26355 343.154175 181.676056 344.094788 Z M 210.594788 353.756256 C 212.505219 353.070862 214.087494 351.729187 214.73645 349.753113 C 215.75 346.697937 213.70105 344.350006 210.397919 344.663544 C 204.251038 345.246887 201.297913 350.963562 196.9375 352.939575 C 193.422913 354.529175 191.089569 352.217712 190.8125 349.935425 C 191.898956 352.108337 194.698944 352.159363 196.696869 351.452087 C 201.210419 349.855225 204.4552 344.510437 210.325012 343.948975 C 215.057281 343.5625 218.090637 346.617737 216.639587 350.42395 C 216.172913 351.663544 214.007294 354.696899 210.594788 353.756256 Z M 210.594788 353.756256"/>
    </g>
    <path id="path13" fill="#3f4446" fill-rule="evenodd" stroke="none" d="M 171.5625 347.5 L 174.347931 348.929169 L 171.5625 350.351044 L 57.56459 348.929169 Z M 171.5625 347.5"/>
    <path id="path14" fill="#3f4446" fill-rule="evenodd" stroke="none" d="M 220.708344 347.5 L 217.922913 348.929169 L 220.708344 350.351044 L 334.698944 348.929169 Z M 220.708344 347.5"/>
    <g id="g3">
        <g id="g4">
            <g id="g5">
                <path id="path15" fill="#3f4446" stroke="none" d="M 38.165161 363.05304 L 46.506821 382.186401 C 46.579742 382.38324 46.579742 382.536377 46.506821 382.653046 C 46.448486 382.755127 46.31723 382.798889 46.127655 382.798889 L 43.910995 382.798889 C 43.597443 382.798889 43.39328 382.667633 43.298492 382.390564 L 42.015152 379.24054 L 33.294327 379.24054 L 32.010986 382.390564 C 31.894318 382.667633 31.690155 382.798889 31.398483 382.798889 L 29.152649 382.798889 C 28.95578 382.798889 28.817245 382.755127 28.744324 382.653046 C 28.685989 382.536377 28.693283 382.38324 28.773483 382.186401 L 37.115158 363.05304 C 37.246414 362.746796 37.421402 362.586365 37.640152 362.586365 C 37.851608 362.586365 38.026611 362.746796 38.165161 363.05304 Z M 37.640152 368.507202 L 34.315155 376.703064 L 40.965149 376.703064 Z M 37.640152 368.507202"/>
            </g>
        </g>
    </g>
    <g id="g6">
        <g id="g7">
            <g id="g8">
                <path id="path16" fill="#3f4446" stroke="none" d="M 54.549927 383.236389 C 53.908264 383.236389 53.266586 383.192627 52.624924 383.11969 C 51.997833 383.03949 51.327011 382.90094 50.612427 382.711365 C 49.91243 382.499939 49.161377 382.215546 48.366592 381.86554 C 48.031174 381.712402 47.936386 381.479065 48.074921 381.165527 L 48.774918 379.444702 C 48.906174 379.138458 49.139511 379.058258 49.47493 379.211365 C 50.466583 379.721802 51.370758 380.071777 52.187424 380.261383 C 53.018677 380.436401 53.762421 380.523865 54.404083 380.523865 C 55.454086 380.523865 56.278046 380.312439 56.883255 379.882202 C 57.503052 379.45929 57.816589 378.846802 57.816589 378.044708 C 57.816589 377.578064 57.685333 377.162415 57.437424 376.790527 C 57.18222 376.404083 56.832214 376.054077 56.387421 375.74054 C 55.957214 375.412415 55.46138 375.091583 54.899918 374.778046 C 54.331177 374.471802 53.740555 374.136383 53.120758 373.786377 C 52.515549 373.458252 51.924927 373.108276 51.341583 372.736389 C 50.772842 372.371796 50.262421 371.948883 49.795761 371.482208 C 49.343674 371.015564 48.986374 370.483276 48.716583 369.878052 C 48.46138 369.280121 48.337418 368.580139 48.337418 367.778046 C 48.337418 366.866577 48.490555 366.086365 48.804092 365.444702 C 49.132217 364.788452 49.577011 364.248901 50.145752 363.840546 C 50.729095 363.417633 51.378052 363.104065 52.09993 362.907227 C 52.83638 362.717651 53.602005 362.61554 54.404083 362.61554 C 55.177002 362.61554 56.015549 362.717651 56.91243 362.907227 C 57.802002 363.104065 58.698883 363.373901 59.595764 363.723877 C 59.923874 363.884277 60.011383 364.117615 59.858261 364.423889 L 59.245758 366.05719 C 59.187424 366.217651 59.09993 366.319702 58.983261 366.378052 C 58.866592 366.421814 58.728043 366.407227 58.574921 366.348877 C 57.874924 366.042633 57.160339 365.794708 56.445755 365.61969 C 55.723877 365.444702 55.053055 365.357208 54.433258 365.357208 C 53.886383 365.357208 53.383255 365.437439 52.916595 365.590546 C 52.464508 365.729065 52.107208 365.962402 51.837418 366.290527 C 51.560333 366.604065 51.429092 367.034302 51.429092 367.573883 C 51.429092 368.040527 51.531174 368.46344 51.749924 368.828064 C 51.96138 369.199921 52.260345 369.542633 52.654083 369.848877 C 53.040543 370.162415 53.478043 370.461365 53.966583 370.753052 C 54.469711 371.030121 54.99472 371.30719 55.541595 371.598877 C 56.044708 371.875977 56.547836 372.153046 57.058258 372.444702 C 57.583252 372.736389 58.079086 373.071777 58.545761 373.436401 C 59.012421 373.786377 59.420761 374.180115 59.770752 374.603027 C 60.120758 375.033264 60.390549 375.52179 60.587418 376.061401 C 60.798874 376.608276 60.908264 377.220764 60.908264 377.898865 C 60.908264 378.817627 60.733261 379.612427 60.383255 380.290527 C 60.047836 380.954102 59.581177 381.50824 58.983261 381.953064 C 58.399918 382.38324 57.714508 382.704102 56.941589 382.915527 C 56.183258 383.127014 55.38118 383.236389 54.549927 383.236389 Z M 54.549927 383.236389"/>
            </g>
        </g>
    </g>
    <g id="g9">
        <g id="g10">
            <g id="g11">
                <path id="path17" fill="#3f4446" stroke="none" d="M 73.420731 383.236389 C 72.232193 383.236389 71.116562 383.075958 70.066559 382.769714 C 69.031143 382.441589 68.090515 381.974915 67.237396 381.36969 C 66.376984 380.77179 65.633224 380.049927 64.991562 379.211365 C 64.364487 378.358276 63.883224 377.403046 63.533234 376.353027 C 63.197815 375.288452 63.037399 374.136383 63.037399 372.911377 C 63.037399 371.708252 63.197815 370.578064 63.533234 369.528046 C 63.883224 368.46344 64.364487 367.50824 64.991562 366.669708 C 65.633224 365.816589 66.376984 365.087402 67.237396 364.482208 C 68.090515 363.884277 69.031143 363.424927 70.066559 363.111389 C 71.116562 362.783264 72.232193 362.61554 73.420731 362.61554 C 74.587402 362.61554 75.695724 362.783264 76.745728 363.111389 C 77.795731 363.424927 78.743652 363.884277 79.604065 364.482208 C 80.457184 365.087402 81.193649 365.816589 81.820724 366.669708 C 82.462402 367.50824 82.943649 368.46344 83.279068 369.528046 C 83.629059 370.578064 83.804062 371.708252 83.804062 372.911377 C 83.804062 374.136383 83.629059 375.288452 83.279068 376.353027 C 82.943649 377.403046 82.462402 378.358276 81.820724 379.211365 C 81.193649 380.049927 80.457184 380.77179 79.604065 381.36969 C 78.743652 381.974915 77.795731 382.441589 76.745728 382.769714 C 75.695724 383.075958 74.587402 383.236389 73.420731 383.236389 Z M 73.420731 380.348877 C 74.426987 380.348877 75.374893 380.173889 76.249893 379.823883 C 77.139481 379.45929 77.919693 378.948883 78.583237 378.30719 C 79.261353 377.65094 79.786362 376.863464 80.158234 375.944702 C 80.522812 375.033264 80.712402 374.019714 80.712402 372.911377 C 80.712402 371.80304 80.522812 370.804077 80.158234 369.907227 C 79.786362 368.995758 79.261353 368.215546 78.583237 367.573883 C 77.919693 366.917633 77.139481 366.407227 76.249893 366.05719 C 75.374893 365.692627 74.426987 365.503052 73.420731 365.503052 C 72.385315 365.503052 71.422821 365.692627 70.533234 366.05719 C 69.658234 366.407227 68.885315 366.917633 68.229065 367.573883 C 67.565521 368.215546 67.047821 368.995758 66.683228 369.907227 C 66.311356 370.804077 66.129059 371.80304 66.129059 372.911377 C 66.129059 374.019714 66.311356 375.033264 66.683228 375.944702 C 67.047821 376.841583 67.565521 377.621796 68.229065 378.278046 C 68.885315 378.941589 69.658234 379.45929 70.533234 379.823883 C 71.422821 380.173889 72.385315 380.348877 73.420731 380.348877 Z M 73.420731 380.348877"/>
            </g>
        </g>
    </g>
    <g id="g12">
        <g id="g13">
            <g id="g14">
                <path id="path18" fill="#3f4446" stroke="none" d="M 96.373596 383.236389 C 95.206924 383.236389 94.105896 383.075958 93.077759 382.769714 C 92.042343 382.441589 91.094437 381.982208 90.219437 381.398865 C 89.359009 380.800964 88.622559 380.071777 88.002762 379.211365 C 87.375687 378.358276 86.894424 377.403046 86.544434 376.353027 C 86.194427 375.30304 86.019424 374.158264 86.019424 372.911377 C 86.019424 371.686401 86.194427 370.548889 86.544434 369.498901 C 86.894424 368.434296 87.375687 367.479065 88.002762 366.640564 C 88.622559 365.787415 89.359009 365.058258 90.219437 364.453064 C 91.094437 363.855133 92.042343 363.395752 93.077759 363.082214 C 94.105896 362.77597 95.192352 362.61554 96.344437 362.61554 C 97.861099 362.61554 99.261093 362.892639 100.544434 363.43219 C 101.827759 363.957214 102.921509 364.686401 103.840271 365.61969 C 104.088181 365.874939 104.080887 366.11554 103.811096 366.348877 L 102.177765 367.544708 C 101.944427 367.763458 101.696518 367.748901 101.448593 367.515564 C 100.806931 366.895752 100.048599 366.407227 99.173599 366.05719 C 98.313187 365.692627 97.372559 365.503052 96.344437 365.503052 C 95.330887 365.503052 94.390259 365.692627 93.515259 366.05719 C 92.640259 366.407227 91.86734 366.917633 91.211105 367.573883 C 90.547562 368.215546 90.029846 368.995758 89.665268 369.907227 C 89.293396 370.804077 89.111099 371.80304 89.111099 372.911377 C 89.111099 374.019714 89.293396 375.033264 89.665268 375.944702 C 90.029846 376.841583 90.547562 377.621796 91.211105 378.278046 C 91.86734 378.941589 92.640259 379.45929 93.515259 379.823883 C 94.404846 380.173889 95.36734 380.348877 96.402771 380.348877 C 97.394424 380.348877 98.313187 380.173889 99.173599 379.823883 C 100.048599 379.45929 100.806931 378.96344 101.448593 378.336365 C 101.681931 378.103027 101.922562 378.095764 102.177765 378.30719 L 103.811096 379.473877 C 104.080887 379.707214 104.110062 379.940552 103.898605 380.173889 C 102.979843 381.129089 101.886093 381.880127 100.602768 382.419708 C 99.319427 382.95929 97.904846 383.236389 96.373596 383.236389 Z M 96.373596 383.236389"/>
            </g>
        </g>
    </g>
    <g id="g15">
        <g id="g16">
            <g id="g17">
                <path id="path19" fill="#3f4446" stroke="none" d="M 109.314514 382.798889 L 107.302032 382.798889 C 106.952026 382.798889 106.777008 382.623901 106.777008 382.273865 L 106.777008 363.578064 C 106.777008 363.228027 106.952026 363.05304 107.302032 363.05304 L 109.314514 363.05304 C 109.66452 363.05304 109.839508 363.228027 109.839508 363.578064 L 109.839508 382.273865 C 109.839508 382.623901 109.66452 382.798889 109.314514 382.798889 Z M 109.314514 382.798889"/>
            </g>
        </g>
    </g>
    <g id="g18">
        <g id="g19">
            <g id="g20">
                <path id="path20" fill="#3f4446" stroke="none" d="M 121.614716 363.05304 L 129.95639 382.186401 C 130.029297 382.38324 130.029297 382.536377 129.95639 382.653046 C 129.898041 382.755127 129.766785 382.798889 129.577209 382.798889 L 127.360535 382.798889 C 127.046997 382.798889 126.842834 382.667633 126.748047 382.390564 L 125.464722 379.24054 L 116.743866 379.24054 L 115.460541 382.390564 C 115.343872 382.667633 115.139709 382.798889 114.848053 382.798889 L 112.602203 382.798889 C 112.405334 382.798889 112.266785 382.755127 112.193878 382.653046 C 112.135559 382.536377 112.142853 382.38324 112.223053 382.186401 L 120.564728 363.05304 C 120.695953 362.746796 120.870972 362.586365 121.089722 362.586365 C 121.301178 362.586365 121.476166 362.746796 121.614716 363.05304 Z M 121.089722 368.507202 L 117.764709 376.703064 L 124.414703 376.703064 Z M 121.089722 368.507202"/>
            </g>
        </g>
    </g>
    <g id="g21">
        <g id="g22">
            <g id="g23">
                <path id="path21" fill="#3f4446" stroke="none" d="M 131.261993 363.05304 L 143.103638 363.05304 C 143.453644 363.05304 143.628662 363.228027 143.628662 363.578064 L 143.628662 365.298889 C 143.628662 365.648865 143.453644 365.823883 143.103638 365.823883 L 138.728638 365.823883 L 138.728638 382.273865 C 138.728638 382.623901 138.55365 382.798889 138.203644 382.798889 L 137.707825 382.798889 L 137.386993 383.965546 C 137.773438 384.002014 138.130737 384.096802 138.466156 384.257202 C 138.816162 384.43219 139.085938 384.665527 139.282806 384.957214 C 139.494263 385.263458 139.603638 385.642639 139.603638 386.094727 C 139.603638 386.853027 139.2901 387.443665 138.670319 387.873901 C 138.065094 388.318665 137.153656 388.573883 135.92865 388.632202 C 135.731781 388.632202 135.585938 388.581177 135.49115 388.486389 C 135.41095 388.384277 135.389069 388.253052 135.432831 388.078064 L 135.578644 387.465546 C 135.65155 387.152008 135.84845 386.984314 136.161987 386.969727 C 136.5849 386.925964 136.956787 386.831177 137.270325 386.67804 C 137.576569 386.517639 137.736969 386.247833 137.736969 385.861389 C 137.736969 385.547852 137.634888 385.314514 137.445313 385.161377 C 137.270325 385.000977 137.007813 384.884277 136.657806 384.811401 C 136.28595 384.753052 136.140106 384.556152 136.220306 384.228027 L 136.599487 382.798889 L 136.161987 382.798889 C 135.811981 382.798889 135.636993 382.623901 135.636993 382.273865 L 135.636993 365.823883 L 131.261993 365.823883 C 130.911987 365.823883 130.736969 365.648865 130.736969 365.298889 L 130.736969 363.578064 C 130.736969 363.228027 130.911987 363.05304 131.261993 363.05304 Z M 131.261993 363.05304"/>
            </g>
        </g>
    </g>
    <g id="g24">
        <g id="g25">
            <g id="g26">
                <path id="path22" fill="#3f4446" stroke="none" d="M 148.470032 382.798889 L 146.45752 382.798889 C 146.107513 382.798889 145.932526 382.623901 145.932526 382.273865 L 145.932526 363.578064 C 145.932526 363.228027 146.107513 363.05304 146.45752 363.05304 L 148.470032 363.05304 C 148.820038 363.05304 148.995026 363.228027 148.995026 363.578064 L 148.995026 382.273865 C 148.995026 382.623901 148.820038 382.798889 148.470032 382.798889 Z M 148.470032 382.798889"/>
            </g>
        </g>
    </g>
    <g id="g27">
        <g id="g28">
            <g id="g29">
                <path id="path23" fill="#3f4446" stroke="none" d="M 160.770233 363.05304 L 169.111877 382.186401 C 169.184814 382.38324 169.184814 382.536377 169.111877 382.653046 C 169.053558 382.755127 168.922302 382.798889 168.732727 382.798889 L 166.516052 382.798889 C 166.202515 382.798889 165.998352 382.667633 165.903564 382.390564 L 164.620209 379.24054 L 155.899384 379.24054 L 154.616058 382.390564 C 154.49939 382.667633 154.295227 382.798889 154.00354 382.798889 L 151.757721 382.798889 C 151.560852 382.798889 151.422302 382.755127 151.349396 382.653046 C 151.291046 382.536377 151.29834 382.38324 151.37854 382.186401 L 159.720215 363.05304 C 159.851471 362.746796 160.026459 362.586365 160.245209 362.586365 C 160.456665 362.586365 160.631683 362.746796 160.770233 363.05304 Z M 160.245209 368.507202 L 156.920227 376.703064 L 163.570221 376.703064 Z M 160.245209 368.507202"/>
            </g>
        </g>
    </g>
    <g id="g30">
        <g id="g31">
            <g id="g32"/>
        </g>
    </g>
    <g id="g33">
        <g id="g34">
            <g id="g35">
                <path id="path24" fill="#3f4446" stroke="none" d="M 188.754791 383.236389 C 187.566254 383.236389 186.450623 383.075958 185.400635 382.769714 C 184.365204 382.441589 183.424591 381.974915 182.571472 381.36969 C 181.711029 380.77179 180.967285 380.049927 180.325623 379.211365 C 179.698547 378.358276 179.217285 377.403046 178.867279 376.353027 C 178.53186 375.288452 178.37146 374.136383 178.37146 372.911377 C 178.37146 371.708252 178.53186 370.578064 178.867279 369.528046 C 179.217285 368.46344 179.698547 367.50824 180.325623 366.669708 C 180.967285 365.816589 181.711029 365.087402 182.571472 364.482208 C 183.424591 363.884277 184.365204 363.424927 185.400635 363.111389 C 186.450623 362.783264 187.566254 362.61554 188.754791 362.61554 C 190.249573 362.61554 191.627716 362.892639 192.896454 363.43219 C 194.179779 363.957214 195.273529 364.686401 196.192291 365.61969 C 196.440216 365.874939 196.432922 366.11554 196.163116 366.348877 L 194.529785 367.544708 C 194.274597 367.741577 194.033966 367.734314 193.800629 367.515564 C 193.158966 366.895752 192.400635 366.407227 191.525635 366.05719 C 190.665222 365.692627 189.74646 365.503052 188.754791 365.503052 C 187.71936 365.503052 186.756866 365.692627 185.867279 366.05719 C 184.992279 366.407227 184.21936 366.917633 183.56311 367.573883 C 182.899597 368.215546 182.381866 368.995758 182.017303 369.907227 C 181.645416 370.804077 181.463135 371.80304 181.463135 372.911377 C 181.463135 374.041565 181.645416 375.062439 182.017303 375.973877 C 182.381866 376.892639 182.899597 377.687439 183.56311 378.36554 C 184.21936 379.029083 184.992279 379.546814 185.867279 379.911377 C 186.756866 380.261383 187.71936 380.436401 188.754791 380.436401 C 189.724579 380.436401 190.628754 380.27594 191.467285 379.940552 C 192.320404 379.590546 193.071472 379.116577 193.713135 378.511383 L 193.713135 376.382202 L 189.133972 376.382202 C 188.783966 376.382202 188.608948 376.207214 188.608948 375.857208 L 188.608948 374.223877 C 188.608948 373.873901 188.783966 373.698883 189.133972 373.698883 L 196.046448 373.698883 C 196.396454 373.698883 196.571472 373.873901 196.571472 374.223877 L 196.571472 379.444702 C 196.571472 379.699921 196.491241 379.911377 196.338135 380.086365 C 195.419373 381.078064 194.311035 381.858276 193.013123 382.419708 C 191.707916 382.95929 190.286041 383.236389 188.754791 383.236389 Z M 188.754791 383.236389"/>
            </g>
        </g>
    </g>
    <g id="g36">
        <g id="g37">
            <g id="g38">
                <path id="path25" fill="#3f4446" stroke="none" d="M 207.697754 363.05304 L 216.039429 382.186401 C 216.112335 382.38324 216.112335 382.536377 216.039429 382.653046 C 215.981079 382.755127 215.849823 382.798889 215.660248 382.798889 L 213.443573 382.798889 C 213.130035 382.798889 212.925873 382.667633 212.831085 382.390564 L 211.54776 379.24054 L 202.826904 379.24054 L 201.543579 382.390564 C 201.42691 382.667633 201.222748 382.798889 200.931091 382.798889 L 198.685242 382.798889 C 198.488373 382.798889 198.349823 382.755127 198.276917 382.653046 C 198.218567 382.536377 198.225861 382.38324 198.306091 382.186401 L 206.647736 363.05304 C 206.778992 362.746796 206.95401 362.586365 207.17276 362.586365 C 207.384216 362.586365 207.559204 362.746796 207.697754 363.05304 Z M 207.17276 368.507202 L 203.847748 376.703064 L 210.497742 376.703064 Z M 207.17276 368.507202"/>
            </g>
        </g>
    </g>
    <g id="g39">
        <g id="g40">
            <g id="g41">
                <path id="path26" fill="#3f4446" stroke="none" d="M 227.349182 382.798889 L 218.949188 382.798889 C 218.599182 382.798889 218.424194 382.623901 218.424194 382.273865 L 218.424194 363.578064 C 218.424194 363.228027 218.599182 363.05304 218.949188 363.05304 L 220.96167 363.05304 C 221.311676 363.05304 221.486694 363.228027 221.486694 363.578064 L 221.486694 380.028046 L 227.349182 380.028046 C 227.699188 380.028046 227.874176 380.203064 227.874176 380.55304 L 227.874176 382.273865 C 227.874176 382.623901 227.699188 382.798889 227.349182 382.798889 Z M 227.349182 382.798889"/>
            </g>
        </g>
    </g>
    <g id="g42">
        <g id="g43">
            <g id="g44"/>
        </g>
    </g>
    <g id="g45">
        <g id="g46">
            <g id="g47">
                <path id="path27" fill="#3f4446" stroke="none" d="M 243.787384 382.798889 L 241.745728 382.798889 C 241.395721 382.798889 241.220734 382.623901 241.220734 382.273865 L 241.220734 365.823883 L 236.845734 365.823883 C 236.495728 365.823883 236.320709 365.648865 236.320709 365.298889 L 236.320709 363.578064 C 236.320709 363.228027 236.495728 363.05304 236.845734 363.05304 L 248.687378 363.05304 C 249.037384 363.05304 249.212372 363.228027 249.212372 363.578064 L 249.212372 365.298889 C 249.212372 365.648865 249.037384 365.823883 248.687378 365.823883 L 244.312378 365.823883 L 244.312378 382.273865 C 244.312378 382.623901 244.13739 382.798889 243.787384 382.798889 Z M 243.787384 382.798889"/>
            </g>
        </g>
    </g>
    <g id="g48">
        <g id="g49">
            <g id="g50">
                <path id="path28" fill="#3f4446" stroke="none" d="M 256.737091 361.273865 L 255.424591 361.273865 C 255.205841 361.273865 255.060028 361.215546 254.987091 361.098877 C 254.928772 360.982208 254.96521 360.836365 255.10376 360.661377 L 257.174591 358.007202 C 257.247528 357.890564 257.335022 357.817627 257.437103 357.773865 C 257.553772 357.737427 257.670441 357.715546 257.787109 357.715546 L 259.945435 357.715546 C 260.21521 357.715546 260.426697 357.824921 260.587097 358.036377 L 262.628754 360.661377 C 262.76001 360.836365 262.803772 360.982208 262.745422 361.098877 C 262.687103 361.215546 262.548553 361.273865 262.337097 361.273865 L 260.995422 361.273865 C 260.740234 361.273865 260.528778 361.179077 260.35376 360.982208 L 258.866272 359.173889 L 257.378754 360.982208 C 257.240234 361.179077 257.028778 361.273865 256.737091 361.273865 Z M 259.391266 363.05304 L 267.732941 382.186401 C 267.805847 382.38324 267.805847 382.536377 267.732941 382.653046 C 267.674591 382.755127 267.543335 382.798889 267.35376 382.798889 L 265.137085 382.798889 C 264.823547 382.798889 264.619385 382.667633 264.524597 382.390564 L 263.241272 379.24054 L 254.520447 379.24054 L 253.237091 382.390564 C 253.120422 382.667633 252.91626 382.798889 252.624603 382.798889 L 250.378754 382.798889 C 250.181885 382.798889 250.043335 382.755127 249.970428 382.653046 C 249.912109 382.536377 249.919403 382.38324 249.999603 382.186401 L 258.341278 363.05304 C 258.472504 362.746796 258.647522 362.586365 258.866272 362.586365 C 259.077728 362.586365 259.252716 362.746796 259.391266 363.05304 Z M 258.866272 368.507202 L 255.54126 376.703064 L 262.191254 376.703064 Z M 258.866272 368.507202"/>
            </g>
        </g>
    </g>
    <g id="g51">
        <g id="g52">
            <g id="g53">
                <path id="path29" fill="#3f4446" stroke="none" d="M 280.7052 375.798889 L 284.001038 382.157227 C 284.095825 382.354065 284.103119 382.507202 284.030212 382.623901 C 283.949982 382.74054 283.811462 382.798889 283.621857 382.798889 L 281.288544 382.798889 C 281.011444 382.798889 280.807281 382.667633 280.676025 382.390564 L 277.701019 376.498901 C 277.5625 376.498901 277.416656 376.498901 277.263519 376.498901 C 277.103119 376.498901 276.949982 376.498901 276.796875 376.498901 L 273.180206 376.498901 L 273.180206 382.273865 C 273.180206 382.623901 273.005188 382.798889 272.655212 382.798889 L 270.6427 382.798889 C 270.292694 382.798889 270.117706 382.623901 270.117706 382.273865 L 270.117706 363.578064 C 270.117706 363.228027 270.292694 363.05304 270.6427 363.05304 L 276.446869 363.05304 C 278.255188 363.05304 279.713531 363.330139 280.821869 363.86969 C 281.944794 364.394714 282.761444 365.153046 283.271881 366.144714 C 283.796875 367.136383 284.059357 368.332214 284.059357 369.732208 C 284.059357 371.234314 283.774994 372.495758 283.213531 373.523865 C 282.644775 374.537415 281.813538 375.295776 280.7052 375.798889 Z M 273.180206 373.728027 L 276.155212 373.728027 C 276.388519 373.728027 276.665619 373.720764 277.001038 373.698883 C 277.329163 373.684296 277.679169 373.640564 278.051025 373.582214 C 278.415619 373.509277 278.780212 373.392639 279.130188 373.232208 C 279.480194 373.05719 279.801025 372.823883 280.092712 372.532227 C 280.384369 372.24054 280.603119 371.875977 280.763519 371.423889 C 280.938538 370.957214 281.026031 370.395752 281.026031 369.732208 C 281.026031 369.090546 280.938538 368.550964 280.763519 368.098877 C 280.603119 367.654083 280.384369 367.296814 280.092712 367.019714 C 279.815613 366.728027 279.509369 366.509277 279.159363 366.348877 C 278.809357 366.173889 278.444794 366.05719 278.0802 365.998901 C 277.708313 365.925964 277.358337 365.874939 277.030212 365.853027 C 276.694794 365.83844 276.403107 365.823883 276.155212 365.823883 L 273.180206 365.823883 Z M 273.180206 373.728027"/>
            </g>
        </g>
    </g>
    <g id="g54">
        <g id="g55">
            <g id="g56">
                <path id="path30" fill="#3f4446" stroke="none" d="M 296.972015 383.236389 C 295.783478 383.236389 294.667847 383.075958 293.617828 382.769714 C 292.582428 382.441589 291.641785 381.974915 290.788666 381.36969 C 289.928253 380.77179 289.184509 380.049927 288.542847 379.211365 C 287.915771 378.358276 287.434509 377.403046 287.084503 376.353027 C 286.749084 375.288452 286.588684 374.136383 286.588684 372.911377 C 286.588684 371.708252 286.749084 370.578064 287.084503 369.528046 C 287.434509 368.46344 287.915771 367.50824 288.542847 366.669708 C 289.184509 365.816589 289.928253 365.087402 290.788666 364.482208 C 291.641785 363.884277 292.582428 363.424927 293.617828 363.111389 C 294.667847 362.783264 295.783478 362.61554 296.972015 362.61554 C 298.466797 362.61554 299.84491 362.892639 301.113678 363.43219 C 302.397003 363.957214 303.490753 364.686401 304.409515 365.61969 C 304.65741 365.874939 304.650116 366.11554 304.380341 366.348877 L 302.747009 367.544708 C 302.491791 367.741577 302.25116 367.734314 302.017853 367.515564 C 301.37616 366.895752 300.617828 366.407227 299.742828 366.05719 C 298.882416 365.692627 297.963684 365.503052 296.972015 365.503052 C 295.936584 365.503052 294.974091 365.692627 294.084503 366.05719 C 293.209503 366.407227 292.436584 366.917633 291.780334 367.573883 C 291.116791 368.215546 290.599091 368.995758 290.234497 369.907227 C 289.86264 370.804077 289.680328 371.80304 289.680328 372.911377 C 289.680328 374.041565 289.86264 375.062439 290.234497 375.973877 C 290.599091 376.892639 291.116791 377.687439 291.780334 378.36554 C 292.436584 379.029083 293.209503 379.546814 294.084503 379.911377 C 294.974091 380.261383 295.936584 380.436401 296.972015 380.436401 C 297.941803 380.436401 298.845978 380.27594 299.684509 379.940552 C 300.537628 379.590546 301.288666 379.116577 301.930328 378.511383 L 301.930328 376.382202 L 297.351166 376.382202 C 297.00116 376.382202 296.826172 376.207214 296.826172 375.857208 L 296.826172 374.223877 C 296.826172 373.873901 297.00116 373.698883 297.351166 373.698883 L 304.263672 373.698883 C 304.613678 373.698883 304.788666 373.873901 304.788666 374.223877 L 304.788666 379.444702 C 304.788666 379.699921 304.708466 379.911377 304.555328 380.086365 C 303.636597 381.078064 302.528259 381.858276 301.230347 382.419708 C 299.92514 382.95929 298.503265 383.236389 296.972015 383.236389 Z M 296.972015 383.236389"/>
            </g>
        </g>
    </g>
    <g id="g57">
        <g id="g58">
            <g id="g59">
                <path id="path31" fill="#3f4446" stroke="none" d="M 315.098297 383.236389 C 314.121216 383.236389 313.202454 383.105133 312.327454 382.857208 C 311.467041 382.609314 310.701416 382.208252 310.023285 381.661377 C 309.359741 381.099915 308.834747 380.392639 308.448303 379.532227 C 308.076416 378.657227 307.894135 377.629089 307.894135 376.440552 L 307.894135 363.578064 C 307.894135 363.228027 308.069122 363.05304 308.419128 363.05304 L 310.460785 363.05304 C 310.810791 363.05304 310.985809 363.228027 310.985809 363.578064 L 310.985809 375.973877 C 310.985809 377.067627 311.14621 377.92804 311.481628 378.569702 C 311.831635 379.211365 312.305603 379.67804 312.910797 379.969727 C 313.530579 380.246796 314.259766 380.378052 315.098297 380.378052 C 315.929535 380.378052 316.658722 380.246796 317.285797 379.969727 C 317.905579 379.67804 318.379547 379.211365 318.714966 378.569702 C 319.043091 377.92804 319.210785 377.067627 319.210785 375.973877 L 319.210785 363.578064 C 319.210785 363.228027 319.385803 363.05304 319.735809 363.05304 L 321.777466 363.05304 C 322.127472 363.05304 322.30246 363.228027 322.30246 363.578064 L 322.30246 376.440552 C 322.30246 377.629089 322.112885 378.657227 321.748291 379.532227 C 321.376434 380.392639 320.85141 381.099915 320.173309 381.661377 C 319.509766 382.208252 318.744141 382.609314 317.869141 382.857208 C 317.008728 383.105133 316.089966 383.236389 315.098297 383.236389 Z M 315.098297 383.236389"/>
            </g>
        </g>
    </g>
    <g id="g60">
        <g id="g61">
            <g id="g62"/>
        </g>
    </g>
    <g id="g63">
        <g id="g64">
            <g id="g65">
                <path id="path32" fill="#3f4446" stroke="none" d="M 335.696106 383.236389 C 335.302368 383.236389 334.864868 383.207214 334.383606 383.148865 C 333.89505 383.105133 333.333618 382.988464 332.691925 382.798889 C 332.341949 382.68219 332.2034 382.470764 332.2836 382.157227 L 332.633606 380.465546 C 332.706512 380.11554 332.932556 379.998901 333.304443 380.11554 C 333.712769 380.232208 334.048187 380.312439 334.325287 380.348877 C 334.616943 380.392639 334.835693 380.407227 334.996094 380.407227 C 335.594025 380.407227 336.016937 380.246796 336.250275 379.911377 C 336.483612 379.561401 336.600281 378.970764 336.600281 378.132202 L 336.600281 363.578064 C 336.600281 363.228027 336.775269 363.05304 337.125275 363.05304 L 339.137787 363.05304 C 339.487762 363.05304 339.662781 363.228027 339.662781 363.578064 L 339.662781 378.073883 C 339.662781 379.750977 339.349243 381.034302 338.729431 381.923889 C 338.124237 382.798889 337.110687 383.236389 335.696106 383.236389 Z M 335.696106 383.236389"/>
            </g>
        </g>
    </g>
    <g id="g66">
        <g id="g67">
            <g id="g68">
                <path id="path33" fill="#3f4446" stroke="none" d="M 346.046112 382.798889 L 344.0336 382.798889 C 343.683594 382.798889 343.508606 382.623901 343.508606 382.273865 L 343.508606 363.578064 C 343.508606 363.228027 343.683594 363.05304 344.0336 363.05304 L 346.046112 363.05304 C 346.396088 363.05304 346.571106 363.228027 346.571106 363.578064 L 346.571106 382.273865 C 346.571106 382.623901 346.396088 382.798889 346.046112 382.798889 Z M 346.046112 382.798889"/>
            </g>
        </g>
    </g>
    <g id="g69">
        <g id="g70">
            <g id="g71">
                <path id="path34" fill="#3f4446" stroke="none" d="M 357.529633 383.236389 C 356.552551 383.236389 355.633789 383.105133 354.758789 382.857208 C 353.898376 382.609314 353.132751 382.208252 352.45462 381.661377 C 351.791077 381.099915 351.266083 380.392639 350.879608 379.532227 C 350.507751 378.657227 350.32547 377.629089 350.32547 376.440552 L 350.32547 363.578064 C 350.32547 363.228027 350.500458 363.05304 350.850464 363.05304 L 352.89212 363.05304 C 353.242126 363.05304 353.417114 363.228027 353.417114 363.578064 L 353.417114 375.973877 C 353.417114 377.067627 353.577545 377.92804 353.912964 378.569702 C 354.26297 379.211365 354.736908 379.67804 355.342133 379.969727 C 355.961914 380.246796 356.691071 380.378052 357.529633 380.378052 C 358.36087 380.378052 359.090027 380.246796 359.717133 379.969727 C 360.336914 379.67804 360.810883 379.211365 361.146301 378.569702 C 361.474426 377.92804 361.64212 377.067627 361.64212 375.973877 L 361.64212 363.578064 C 361.64212 363.228027 361.817108 363.05304 362.167114 363.05304 L 364.208801 363.05304 C 364.558777 363.05304 364.733765 363.228027 364.733765 363.578064 L 364.733765 376.440552 C 364.733765 377.629089 364.544189 378.657227 364.179626 379.532227 C 363.807739 380.392639 363.282776 381.099915 362.604614 381.661377 C 361.941071 382.208252 361.175446 382.609314 360.300446 382.857208 C 359.440033 383.105133 358.521301 383.236389 357.529633 383.236389 Z M 357.529633 383.236389"/>
            </g>
        </g>
    </g>
</svg>
