<svg width="1600" height="900" viewBox="0 0 1600 900" fill="none" xmlns="http://www.w3.org/2000/svg">
  <rect width="1600" height="900" fill="#0B1220"/>
  <circle cx="1350" cy="160" r="240" fill="#2496ED" fill-opacity="0.15"/>
  <circle cx="220" cy="780" r="280" fill="#0EA5E9" fill-opacity="0.12"/>
  <circle cx="900" cy="500" r="160" fill="#1D4ED8" fill-opacity="0.08"/>
  <!-- Docker whale simplified -->
  <g transform="translate(1100, 380)">
    <rect x="0" y="60" width="45" height="35" rx="4" fill="#2496ED" fill-opacity="0.6"/>
    <rect x="50" y="60" width="45" height="35" rx="4" fill="#2496ED" fill-opacity="0.6"/>
    <rect x="100" y="60" width="45" height="35" rx="4" fill="#2496ED" fill-opacity="0.6"/>
    <rect x="50" y="20" width="45" height="35" rx="4" fill="#2496ED" fill-opacity="0.6"/>
    <rect x="100" y="20" width="45" height="35" rx="4" fill="#2496ED" fill-opacity="0.6"/>
    <rect x="150" y="60" width="45" height="35" rx="4" fill="#2496ED" fill-opacity="0.6"/>
    <rect x="200" y="60" width="45" height="35" rx="4" fill="#2496ED" fill-opacity="0.6"/>
    <path d="M-20 100 Q0 130 60 130 Q200 135 280 115 Q320 105 340 80 Q350 65 340 55 Q320 35 280 50 L250 60" fill="#2496ED" fill-opacity="0.4" stroke="#2496ED" stroke-width="2" stroke-opacity="0.5"/>
    <circle cx="330" cy="70" r="5" fill="#93C5FD"/>
  </g>
  <text x="120" y="340" fill="white" font-family="Arial, sans-serif" font-size="88" font-weight="700">
    Instalare Docker
  </text>
  <text x="120" y="440" fill="#93C5FD" font-family="Arial, sans-serif" font-size="72" font-weight="600">
    pe Ubuntu
  </text>
  <text x="120" y="520" fill="#64748B" font-family="Arial, sans-serif" font-size="32">
    Ghid complet cu firewall si securitate
  </text>
  <text x="120" y="600" fill="#93C5FD" font-family="Arial, sans-serif" font-size="28">
    bitdoze.ro
  </text>
</svg>